/* XPM */
static const char * const green_xpm[] = {
"14 14 126 2",
"  	c #FFFFFF",
". 	c #A2B49B",
"+ 	c #649A52",
"@ 	c #85AA78",
"# 	c #81A376",
"$ 	c #9FAE9A",
"% 	c #B2BCAE",
"& 	c #5EA546",
"* 	c #4BAC2B",
"= 	c #53B532",
"- 	c #4EAC2E",
"; 	c #48A22A",
"> 	c #39881E",
", 	c #3F7B2A",
"' 	c #9DA999",
") 	c #48A728",
"! 	c #60C73E",
"~ 	c #72DB4F",
"{ 	c #7BE358",
"] 	c #73D851",
"^ 	c #65C545",
"/ 	c #4FA831",
"( 	c #3B8B21",
"_ 	c #2A6815",
": 	c #AEB5AC",
"< 	c #B0B9AD",
"[ 	c #52A437",
"} 	c #62C940",
"| 	c #82EB5F",
"1 	c #99FC76",
"2 	c #A2FE7F",
"3 	c #96F974",
"4 	c #82E461",
"5 	c #62BD44",
"6 	c #499D2C",
"7 	c #347C1C",
"8 	c #225511",
"9 	c #9AA298",
"0 	c #74A165",
"a 	c #75DC52",
"b 	c #98FB74",
"c 	c #B5FF92",
"d 	c #BDFF9A",
"e 	c #B0FF8E",
"f 	c #95F475",
"g 	c #71CC53",
"h 	c #55A739",
"i 	c #3A8222",
"j 	c #286115",
"k 	c #63795C",
"l 	c #489030",
"m 	c #56B536",
"n 	c #7ADF59",
"o 	c #9FFD7D",
"p 	c #BBFF99",
"q 	c #C3FFA1",
"r 	c #B5FF94",
"s 	c #99F67A",
"t 	c #76CE58",
"u 	c #2A6416",
"v 	c #3F5D35",
"w 	c #35811C",
"x 	c #54B136",
"y 	c #71D151",
"z 	c #98F777",
"A 	c #AEFF8D",
"B 	c #A9FF89",
"C 	c #8EE870",
"D 	c #6FC453",
"E 	c #509E36",
"F 	c #387D22",
"G 	c #183D0C",
"H 	c #317819",
"I 	c #7EDC5F",
"J 	c #91EF72",
"K 	c #96F278",
"L 	c #8DE66F",
"M 	c #79CE5D",
"N 	c #5FAE44",
"O 	c #47902E",
"P 	c #32711D",
"Q 	c #245912",
"R 	c #14330A",
"S 	c #3D7729",
"T 	c #3C8A21",
"U 	c #4FA333",
"V 	c #61B845",
"W 	c #72C955",
"X 	c #74C958",
"Y 	c #6FC253",
"Z 	c #60AE45",
"` 	c #4C9634",
" .	c #3A7D24",
"..	c #1E4C0F",
"+.	c #243B1C",
"@.	c #69865F",
"#.	c #2F7118",
"$.	c #3C8723",
"%.	c #48952E",
"&.	c #53A039",
"*.	c #4E9935",
"=.	c #458C2D",
"-.	c #3A7B24",
";.	c #2D6819",
">.	c #225312",
",.	c #163A0B",
"'.	c #70786D",
").	c #2C6B17",
"!.	c #33771D",
"~.	c #387A22",
"{.	c #22361C",
"].	c #ABADAB",
"^.	c #879383",
"/.	c #1C460E",
"(.	c #276015",
"_.	c #275D15",
":.	c #1E4A0F",
"<.	c #22351B",
"[.	c #838881",
"}.	c #28451E",
"|.	c #1A410D",
"1.	c #102A08",
"2.	c #34422F",
"3.	c #ACAEAB",
"4.	c #475343",
"5.	c #5A6358",
"          . + @ # $         ",
"      % & * = - ; > , '     ",
"    . ) ! ~ { ] ^ / ( _ :   ",
"  < [ } | 1 2 3 4 5 6 7 8 9 ",
"  0 - a b c d e f g h i j k ",
"  l m n o p q r s t h i u v ",
": w x y z A r B C D E F j G ",
"  H 6 5 I J K L M N O P Q R ",
"  S T U V W X Y Z `  .u ..+.",
"  @.#.$.%.E &.*.=.-.;.>.,.'.",
"    8 ).!.F  .~.P j >.G {.].",
"    ^./.Q (.j _.8 :.,.<.[.  ",
"      ].}.G |.|.,.1.2.].    ",
"          3.'.4.5.[.        "};
