/* XPM */
static char * green_xpm[] = {
"14 14 159 2",
"  	c None",
". 	c #13521F",
"+ 	c #26573C",
"@ 	c #41635B",
"# 	c #42645D",
"$ 	c #294E48",
"% 	c #163D39",
"& 	c #0F680E",
"* 	c #348332",
"= 	c #86B486",
"- 	c #CEDFD0",
"; 	c #EDF3EE",
"> 	c #EEF3EF",
", 	c #D2DFD5",
"' 	c #8CAA97",
") 	c #386152",
"! 	c #113B35",
"~ 	c #0A5B11",
"{ 	c #388937",
"] 	c #9CD299",
"^ 	c #DEF4DC",
"/ 	c #F4FBF4",
"( 	c #FAFDFA",
"_ 	c #F5FBF4",
": 	c #E0F5DE",
"< 	c #A3CFA5",
"[ 	c #3F7454",
"} 	c #0D3B32",
"| 	c #0F6218",
"1 	c #5BAC59",
"2 	c #ABE0AA",
"3 	c #C6E9C6",
"4 	c #DBF0DB",
"5 	c #E7F6E7",
"6 	c #E8F6E8",
"7 	c #DCF1DC",
"8 	c #C8EAC8",
"9 	c #AEE3AC",
"0 	c #63AE64",
"a 	c #114D2F",
"b 	c #06511B",
"c 	c #107115",
"d 	c #39A138",
"e 	c #89CF89",
"f 	c #ACDEAC",
"g 	c #C0E6C0",
"h 	c #CCEACC",
"i 	c #CCEBCC",
"j 	c #C1E7C1",
"k 	c #AEDEAE",
"l 	c #8CD18C",
"m 	c #3EA63C",
"n 	c #116A1F",
"o 	c #093C34",
"p 	c #0E5D1E",
"q 	c #108912",
"r 	c #0F980E",
"s 	c #46B545",
"t 	c #7FCB7F",
"u 	c #9BD59B",
"v 	c #A6DAA7",
"w 	c #A6DBA7",
"x 	c #9CD69D",
"y 	c #81CD81",
"z 	c #49B748",
"A 	c #119B10",
"B 	c #0F8912",
"C 	c #104835",
"D 	c #126E1E",
"E 	c #0F9C0D",
"F 	c #09A205",
"G 	c #1AAA12",
"H 	c #37B62E",
"I 	c #56C04F",
"J 	c #67C663",
"K 	c #57C151",
"L 	c #39B730",
"M 	c #1BAA13",
"N 	c #0AA306",
"O 	c #0D9D0C",
"P 	c #125734",
"Q 	c #147819",
"R 	c #17A714",
"S 	c #1AAC10",
"T 	c #2AB51C",
"U 	c #32BC21",
"V 	c #39C225",
"W 	c #3FC529",
"X 	c #3BC224",
"Y 	c #33BD20",
"Z 	c #2AB61C",
"` 	c #1CAE12",
" .	c #16A811",
"..	c #135B36",
"+.	c #137412",
"@.	c #27AA20",
"#.	c #28B619",
"$.	c #38BE25",
"%.	c #46C72F",
"&.	c #51CF37",
"*.	c #57D43B",
"=.	c #52D037",
"-.	c #47C930",
";.	c #39C026",
">.	c #28B819",
",.	c #26AA22",
"'.	c #144E39",
").	c #0C6910",
"!.	c #2A9829",
"~.	c #37C125",
"{.	c #44C82D",
"].	c #54D138",
"^.	c #62DB42",
"/.	c #6CE148",
"(.	c #63DB43",
"_.	c #56D239",
":.	c #45C82E",
"<.	c #37C423",
"[.	c #2D9234",
"}.	c #104039",
"|.	c #1C692E",
"1.	c #41B736",
"2.	c #4FD233",
"3.	c #5FD93F",
"4.	c #70E44B",
"5.	c #7EED54",
"6.	c #7FEE55",
"7.	c #71E54C",
"8.	c #60DA40",
"9.	c #50D334",
"0.	c #43BB36",
"a.	c #20603C",
"b.	c #104531",
"c.	c #2D7440",
"d.	c #55C442",
"e.	c #6AE444",
"f.	c #7AEF4F",
"g.	c #8CF95C",
"h.	c #8DFA5D",
"i.	c #7CF050",
"j.	c #6BE646",
"k.	c #57C742",
"l.	c #317941",
"m.	c #14413C",
"n.	c #123E3B",
"o.	c #286242",
"p.	c #53A84F",
"q.	c #78DE5A",
"r.	c #8CF660",
"s.	c #8DF760",
"t.	c #7AE05A",
"u.	c #56AC4F",
"v.	c #2B6642",
"w.	c #15413C",
"x.	c #235443",
"y.	c #336B4A",
"z.	c #336D4A",
"A.	c #255644",
"B.	c #16433C",
"        . + @ # $ %         ",
"    & * = - ; > , ' ) !     ",
"  ~ { ] ^ / ( ( _ : < [ }   ",
"  | 1 2 3 4 5 6 7 8 9 0 a   ",
"b c d e f g h i j k l m n o ",
"p q r s t u v w x y z A B C ",
"D E F G H I J J K L M N O P ",
"Q R S T U V W W X Y Z `  ...",
"+.@.#.$.%.&.*.*.=.-.;.>.,.'.",
").!.~.{.].^././.(._.:.<.[.}.",
"  |.1.2.3.4.5.6.7.8.9.0.a.  ",
"  b.c.d.e.f.g.h.i.j.k.l.m.  ",
"    n.o.p.q.r.s.t.u.v.w.    ",
"        m.x.y.z.A.B.        "};
