/* XPM */
static const char * const red_xpm[] = {
"14 14 122 2",
"  	c #FFFFFF",
". 	c #B4959B",
"+ 	c #9A4052",
"@ 	c #AA6C78",
"# 	c #A36B76",
"$ 	c #AE959A",
"% 	c #BCABAE",
"& 	c #A52F46",
"* 	c #AC0B2B",
"= 	c #B51232",
"- 	c #AC0F2E",
"; 	c #A20C2A",
"> 	c #88041E",
", 	c #7B162A",
"' 	c #A99599",
") 	c #A70828",
"! 	c #C71B3E",
"~ 	c #DB2C4F",
"{ 	c #E33658",
"] 	c #D83051",
"^ 	c #C52545",
"/ 	c #A81331",
"( 	c #8A0621",
"_ 	c #690116",
": 	c #B5AAAC",
"< 	c #B9AAAD",
"[ 	c #A41B37",
"} 	c #C91E40",
"| 	c #EB3B5F",
"1 	c #FC5276",
"2 	c #FE5C7F",
"3 	c #FA5174",
"4 	c #E44161",
"5 	c #BD2544",
"6 	c #9C112D",
"7 	c #7C041C",
"8 	c #550011",
"9 	c #A29598",
"0 	c #A15665",
"a 	c #DC3052",
"b 	c #FF6E92",
"c 	c #FF7699",
"d 	c #FF6C8D",
"e 	c #F55576",
"f 	c #CC3553",
"g 	c #A71D39",
"h 	c #820A22",
"i 	c #610215",
"j 	c #79555C",
"k 	c #901830",
"l 	c #B51636",
"m 	c #DF3759",
"n 	c #FD5B7D",
"o 	c #FF7FA1",
"p 	c #FF7495",
"q 	c #F65B7A",
"r 	c #CE3B58",
"s 	c #650215",
"t 	c #5D2A35",
"u 	c #81031C",
"v 	c #B11736",
"w 	c #D13151",
"x 	c #FF7394",
"y 	c #FF6A89",
"z 	c #E85270",
"A 	c #C43753",
"B 	c #9E1C36",
"C 	c #7D0B22",
"D 	c #3D000C",
"E 	c #780219",
"F 	c #9F0F2C",
"G 	c #DC405F",
"H 	c #EF5372",
"I 	c #F25978",
"J 	c #E6526F",
"K 	c #CE405D",
"L 	c #AE2A44",
"M 	c #90162E",
"N 	c #71081D",
"O 	c #590112",
"P 	c #33000A",
"Q 	c #771629",
"R 	c #A31733",
"S 	c #B82845",
"T 	c #C93855",
"U 	c #C93B58",
"V 	c #C23853",
"W 	c #961B34",
"X 	c #7C0D24",
"Y 	c #640417",
"Z 	c #4C000F",
"` 	c #3B151C",
" .	c #86555F",
"..	c #710218",
"+.	c #870A23",
"@.	c #96142E",
"#.	c #A02039",
"$.	c #991D35",
"%.	c #8D172E",
"&.	c #7B0E24",
"*.	c #680619",
"=.	c #530112",
"-.	c #3A000B",
";.	c #786A6D",
">.	c #77061D",
",.	c #7E0D23",
"'.	c #7A0C22",
").	c #620517",
"!.	c #36151C",
"~.	c #ADAAAB",
"{.	c #938083",
"].	c #46000E",
"^.	c #5D0315",
"/.	c #4A000F",
"(.	c #35151B",
"_.	c #888081",
":.	c #45151E",
"<.	c #41000D",
"[.	c #2A0008",
"}.	c #422A2F",
"|.	c #534043",
"1.	c #635558",
"          . + @ # $         ",
"      % & * = - ; > , '     ",
"    . ) ! ~ { ] ^ / ( _ :   ",
"  < [ } | 1 2 3 4 5 6 7 8 9 ",
"  0 - a 3 b c d e f g h i j ",
"  k l m n c o p q r g h s t ",
": u v w e d x y z A B C i D ",
"  E F 5 G H I J K L M N O P ",
"  Q ( R S T U V L W X Y Z ` ",
"   ...+.@.B #.$.%.&.*.=.-.;.",
"    8 _ >.C ,.'.N ).=.D !.~.",
"    {.].O i i ^.8 /.-.(._.  ",
"      ~.:.D <.<.-.[.}.~.    ",
"          ~.;.|.1._.        "};
