/* XPM */
static char * red_xpm[] = {
"14 14 155 2",
"  	c None",
". 	c #731212",
"+ 	c #7A2424",
"@ 	c #873D3D",
"# 	c #873E3E",
"$ 	c #762525",
"% 	c #681313",
"& 	c #7D0D0D",
"* 	c #973131",
"= 	c #C48181",
"- 	c #E7CACA",
"; 	c #F6EAEA",
"> 	c #F7EBEB",
", 	c #E7CDCD",
"' 	c #BF8787",
") 	c #873434",
"! 	c #680E0E",
"~ 	c #770808",
"{ 	c #A53333",
"] 	c #E79898",
"^ 	c #FDDDDD",
"/ 	c #FFF4F4",
"( 	c #FFFAFA",
"_ 	c #FFF5F5",
": 	c #FDE0E0",
"< 	c #E59E9E",
"[ 	c #9D3838",
"} 	c #690A0A",
"| 	c #8B0B0B",
"1 	c #E05656",
"2 	c #FFABAB",
"3 	c #FFC6C6",
"4 	c #FFDBDB",
"5 	c #FFE7E7",
"6 	c #FFE8E8",
"7 	c #FFDCDC",
"8 	c #FFC9C9",
"9 	c #FFAEAE",
"0 	c #E25E5E",
"a 	c #840E0E",
"b 	c #730303",
"c 	c #B20A0A",
"d 	c #ED3838",
"e 	c #FC8989",
"f 	c #FFADAD",
"g 	c #FFC0C0",
"h 	c #FFCBCB",
"i 	c #FFCCCC",
"j 	c #FFC1C1",
"k 	c #FD8D8D",
"l 	c #EF3E3E",
"m 	c #B30A0A",
"n 	c #6A0505",
"o 	c #7F0A0A",
"p 	c #D30B0B",
"q 	c #E80E0E",
"r 	c #F44343",
"s 	c #FE7F7F",
"t 	c #FF9E9E",
"u 	c #FFA8A8",
"v 	c #FFA9A9",
"w 	c #FF9F9F",
"x 	c #FE8181",
"y 	c #F54747",
"z 	c #E91010",
"A 	c #D50909",
"B 	c #780A0A",
"C 	c #900E0E",
"D 	c #E40A0A",
"E 	c #EC0101",
"F 	c #F20707",
"G 	c #FA2020",
"H 	c #FE4343",
"I 	c #FF5A5A",
"J 	c #FF5C5C",
"K 	c #FF4646",
"L 	c #FB2222",
"M 	c #F30808",
"N 	c #E60808",
"O 	c #890D0D",
"P 	c #950F0F",
"Q 	c #EC0A0A",
"R 	c #F60000",
"S 	c #FB0101",
"T 	c #FF0202",
"U 	c #FF0808",
"V 	c #FF0E0E",
"W 	c #FF0909",
"X 	c #FE0303",
"Y 	c #F70000",
"Z 	c #EF0808",
"` 	c #8B0F0F",
" .	c #8C0E0E",
"..	c #E71010",
"+.	c #FE0101",
"@.	c #FE0909",
"#.	c #FF1616",
"$.	c #FF2121",
"%.	c #FF2626",
"&.	c #FF2222",
"*.	c #FF1717",
"=.	c #FF0A0A",
"-.	c #FE0202",
";.	c #EB0F0F",
">.	c #7C0F0F",
",.	c #800A0A",
"'.	c #C61313",
").	c #FE0808",
"!.	c #FF1313",
"~.	c #FF2424",
"{.	c #FF3131",
"].	c #FF3A3A",
"^.	c #FF3B3B",
"/.	c #FF3232",
"(.	c #FF2525",
"_.	c #FF1515",
":.	c #C71313",
"<.	c #6C0C0C",
"[.	c #8E1010",
"}.	c #E61818",
"|.	c #FF1D1D",
"1.	c #FF2E2E",
"2.	c #FF3F3F",
"3.	c #FF4C4C",
"4.	c #FF4D4D",
"5.	c #FF4040",
"6.	c #FF2F2F",
"7.	c #FF1E1E",
"8.	c #E91818",
"9.	c #8D1111",
"0.	c #9D1B1B",
"a.	c #E62B2B",
"b.	c #FE3636",
"c.	c #FF4747",
"d.	c #FF5959",
"e.	c #FF4848",
"f.	c #FE3838",
"g.	c #E92B2B",
"h.	c #A11B1B",
"i.	c #6C0E0E",
"j.	c #690F0F",
"k.	c #891C1C",
"l.	c #C33535",
"m.	c #EC4D4D",
"n.	c #FB5B5B",
"o.	c #FB5A5A",
"p.	c #ED4D4D",
"q.	c #C73737",
"r.	c #8D1C1C",
"s.	c #6B1010",
"t.	c #7B1C1C",
"u.	c #8E2626",
"v.	c #8F2626",
"w.	c #7C1C1C",
"x.	c #6C1111",
"        . + @ # $ %         ",
"    & * = - ; > , ' ) !     ",
"  ~ { ] ^ / ( ( _ : < [ }   ",
"  | 1 2 3 4 5 6 7 8 9 0 a   ",
"b c d e f g h i j 9 k l m n ",
"o p q r s t u v w x y z A B ",
"C D E F G H I J K L M E N O ",
"P Q R S T U V V W X S Y Z ` ",
" ...+.@.#.$.%.%.&.*.=.-.;.>.",
",.'.).!.~.{.].^./.(._.).:.<.",
"  [.}.|.1.2.3.4.5.6.7.8.9.  ",
"  <.0.a.b.c.d.d.e.f.g.h.i.  ",
"    j.k.l.m.n.o.p.q.r.s.    ",
"        s.t.u.v.w.x.        "};
